<mxfile host="Electron" agent="Mozilla/5.0 (Windows NT 10.0; Win64; x64) AppleWebKit/537.36 (KHTML, like Gecko) draw.io/24.7.8 Chrome/128.0.6613.36 Electron/32.0.1 Safari/537.36" version="24.7.8">
  <diagram name="Page-1" id="QinHM6YeVRL4bA7CnWoM">
    <mxGraphModel dx="946" dy="1187" grid="1" gridSize="10" guides="1" tooltips="1" connect="1" arrows="1" fold="1" page="1" pageScale="1" pageWidth="850" pageHeight="1100" math="0" shadow="0">
      <root>
        <mxCell id="0" />
        <mxCell id="1" parent="0" />
        <mxCell id="jNmC2HEgXROI2AkSCoGl-11" value="" style="rounded=0;whiteSpace=wrap;html=1;dashed=1;verticalAlign=top;" vertex="1" parent="1">
          <mxGeometry x="220" y="320" width="490" height="200" as="geometry" />
        </mxCell>
        <mxCell id="k-k2_vlwBX5GyicjBcSj-1" value="User" style="rounded=0;whiteSpace=wrap;html=1;" parent="1" vertex="1">
          <mxGeometry x="40" y="30" width="120" height="60" as="geometry" />
        </mxCell>
        <mxCell id="k-k2_vlwBX5GyicjBcSj-2" value="Rewards" style="rounded=0;whiteSpace=wrap;html=1;" parent="1" vertex="1">
          <mxGeometry x="690" y="40" width="120" height="60" as="geometry" />
        </mxCell>
        <mxCell id="jNmC2HEgXROI2AkSCoGl-3" style="edgeStyle=orthogonalEdgeStyle;rounded=0;orthogonalLoop=1;jettySize=auto;html=1;entryX=0;entryY=0.5;entryDx=0;entryDy=0;" edge="1" parent="1" source="k-k2_vlwBX5GyicjBcSj-8" target="k-k2_vlwBX5GyicjBcSj-2">
          <mxGeometry relative="1" as="geometry" />
        </mxCell>
        <mxCell id="k-k2_vlwBX5GyicjBcSj-8" value="ClaimedReward" style="rounded=0;whiteSpace=wrap;html=1;" parent="1" vertex="1">
          <mxGeometry x="480" y="40" width="120" height="60" as="geometry" />
        </mxCell>
        <mxCell id="k-k2_vlwBX5GyicjBcSj-12" value="CompletedTask" style="rounded=0;whiteSpace=wrap;html=1;" parent="1" vertex="1">
          <mxGeometry x="290" y="40" width="120" height="60" as="geometry" />
        </mxCell>
        <mxCell id="jNmC2HEgXROI2AkSCoGl-2" style="edgeStyle=orthogonalEdgeStyle;rounded=0;orthogonalLoop=1;jettySize=auto;html=1;entryX=0.5;entryY=1;entryDx=0;entryDy=0;exitX=0.5;exitY=0;exitDx=0;exitDy=0;" edge="1" parent="1" source="jNmC2HEgXROI2AkSCoGl-1" target="k-k2_vlwBX5GyicjBcSj-1">
          <mxGeometry relative="1" as="geometry">
            <Array as="points">
              <mxPoint x="100" y="210" />
              <mxPoint x="100" y="210" />
            </Array>
          </mxGeometry>
        </mxCell>
        <mxCell id="jNmC2HEgXROI2AkSCoGl-1" value="UserConfiguration&lt;div&gt;- TodoistApiKey&lt;/div&gt;" style="rounded=0;whiteSpace=wrap;html=1;" vertex="1" parent="1">
          <mxGeometry x="40" y="230" width="120" height="60" as="geometry" />
        </mxCell>
        <mxCell id="jNmC2HEgXROI2AkSCoGl-10" style="edgeStyle=orthogonalEdgeStyle;rounded=0;orthogonalLoop=1;jettySize=auto;html=1;entryX=0.5;entryY=1;entryDx=0;entryDy=0;" edge="1" parent="1" source="jNmC2HEgXROI2AkSCoGl-4" target="jNmC2HEgXROI2AkSCoGl-7">
          <mxGeometry relative="1" as="geometry" />
        </mxCell>
        <mxCell id="jNmC2HEgXROI2AkSCoGl-4" value="UserStats&lt;div&gt;- Exp&lt;/div&gt;&lt;div&gt;- Gold&lt;/div&gt;" style="rounded=0;whiteSpace=wrap;html=1;" vertex="1" parent="1">
          <mxGeometry x="390" y="370" width="120" height="60" as="geometry" />
        </mxCell>
        <mxCell id="jNmC2HEgXROI2AkSCoGl-8" style="edgeStyle=orthogonalEdgeStyle;rounded=0;orthogonalLoop=1;jettySize=auto;html=1;entryX=0.5;entryY=1;entryDx=0;entryDy=0;" edge="1" parent="1" source="jNmC2HEgXROI2AkSCoGl-7" target="k-k2_vlwBX5GyicjBcSj-12">
          <mxGeometry relative="1" as="geometry" />
        </mxCell>
        <mxCell id="jNmC2HEgXROI2AkSCoGl-9" style="edgeStyle=orthogonalEdgeStyle;rounded=0;orthogonalLoop=1;jettySize=auto;html=1;" edge="1" parent="1" source="jNmC2HEgXROI2AkSCoGl-7" target="k-k2_vlwBX5GyicjBcSj-8">
          <mxGeometry relative="1" as="geometry" />
        </mxCell>
        <mxCell id="jNmC2HEgXROI2AkSCoGl-7" value="UserActivityLog" style="rounded=0;whiteSpace=wrap;html=1;" vertex="1" parent="1">
          <mxGeometry x="390" y="210" width="120" height="60" as="geometry" />
        </mxCell>
      </root>
    </mxGraphModel>
  </diagram>
</mxfile>
